<?xml version="1.0" encoding="UTF-8"?>
<svg xmlns="http://www.w3.org/2000/svg" width="165" height="41" viewBox="0 0 165 41" fill="none">
  <path d="M66.6058 32.4119H72.4836L67.6193 22.7172C70.5581 21.6699 72.3484 19.204 72.3484 15.9612C72.3484 11.7048 69.3083 8.46197 64.5791 8.46197H55.0869V32.4119H60.424V23.4943H62.3158L66.6058 32.4119ZM60.424 18.9001V13.0899H63.5657C65.7614 13.0899 66.9437 14.2046 66.9437 15.9951C66.9437 17.6839 65.7614 18.9001 63.5657 18.9001H60.424ZM74.6172 27.784C74.6172 30.4529 76.7454 32.885 80.4274 32.885C82.6568 32.885 84.2783 31.9391 85.1566 30.5202C85.1566 31.6688 85.2917 32.2768 85.3254 32.4119H89.9533C89.9196 32.2431 89.7505 31.1284 89.7505 29.811V21.6025C89.7505 18.1569 87.7575 15.1168 82.3192 15.1168C77.3873 15.1168 75.1576 18.2921 74.9551 20.6903L79.4139 21.6023C79.5152 20.3527 80.495 19.1365 82.2852 19.1365C83.9067 19.1365 84.7511 19.9808 84.7511 20.9606C84.7511 21.535 84.4471 21.9741 83.5351 22.109L79.5828 22.7172C76.813 23.1225 74.6172 24.8115 74.6172 27.784ZM81.6773 29.1691C80.2586 29.1691 79.6843 28.3247 79.6843 27.4464C79.6843 26.2641 80.495 25.7574 81.5758 25.5885L84.7511 25.0818V25.825C84.7511 28.4259 83.1972 29.1691 81.6773 29.1691ZM104.745 15.6233C104.408 15.522 103.901 15.4544 103.394 15.4544C102.043 15.4544 99.9148 15.9948 99.0368 17.8866V15.6233H94.071V32.4119H99.2056V25.0818C99.2056 21.7377 101.063 20.5215 103.124 20.5215C103.631 20.5215 104.171 20.5552 104.745 20.6903V15.6233ZM112.995 32.4119V15.6233H107.86V32.4119H112.995ZM107.421 10.4889C107.421 12.144 108.772 13.4954 110.394 13.4954C112.083 13.4954 113.434 12.144 113.434 10.4889C113.434 8.83354 112.083 7.48242 110.394 7.48242C108.772 7.48242 107.421 8.83354 107.421 10.4889ZM122.458 32.4119V30.5202C123.235 31.804 124.958 32.7835 127.187 32.7835C131.883 32.7835 135.193 29.1015 135.193 23.9671C135.193 18.9337 132.255 15.218 127.39 15.218C125.093 15.218 123.235 16.1639 122.526 17.211V7.95524H117.493V32.4119H122.458ZM130.059 24.0008C130.059 26.8045 128.269 28.1895 126.275 28.1895C124.282 28.1895 122.458 26.7708 122.458 24.0008C122.458 21.1634 124.282 19.8459 126.275 19.8459C128.269 19.8459 130.059 21.1634 130.059 24.0008ZM143.641 32.4119V7.95524H138.506V32.4119H143.641ZM152.056 22.0078C152.158 20.7579 153.239 19.1701 155.4 19.1701C157.833 19.1701 158.711 20.7242 158.779 22.0078H152.056ZM159.15 26.3653C158.677 27.6828 157.63 28.5611 155.772 28.5611C153.779 28.5611 152.056 27.21 151.955 25.3182H163.643C163.677 25.2167 163.744 24.4399 163.744 23.7304C163.744 18.3257 160.535 15.1168 155.333 15.1168C150.975 15.1168 146.955 18.5622 146.955 23.9671C146.955 29.6082 151.077 32.9187 155.704 32.9187C159.961 32.9187 162.629 30.4865 163.44 27.5815L159.15 26.3653Z" fill="#868E96"></path>
  <path d="M32.2981 0.5C36.8959 0.5 40.6231 4.22723 40.6231 8.825V32.075C40.6231 36.6728 36.8959 40.4 32.2981 40.4H9.04814C4.45037 40.4 0.723145 36.6728 0.723145 32.075V8.825C0.723145 4.22723 4.45037 0.5 9.04814 0.5H32.2981ZM24.5335 13.268H10.8971V27.4387H16.6368V22.6293H23.4449C24.4941 22.6293 25.1075 23.045 25.1075 24.0742V27.4387H30.8471V23.8961C30.8471 21.9664 29.7586 20.749 28.2544 20.3039C29.5112 19.9772 30.6294 19.037 30.6294 17.147C30.6294 14.0002 27.9576 13.268 24.5335 13.268ZM23.5439 17.4241C24.2961 17.4241 24.7512 17.5231 24.7512 18.1168C24.7512 18.7106 24.2961 18.8096 23.5442 18.8096H16.6368V17.4241H23.5439Z" fill="#868E96"></path>
</svg>
