<?xml version="1.0" encoding="UTF-8"?>
<svg xmlns="http://www.w3.org/2000/svg" width="133" height="41" viewBox="0 0 133 41" fill="none">
  <path d="M67.8403 5.90347H69.8162V5.4095L69.3222 4.91553H66.8524L66.3584 5.4095V9.36127L66.8524 9.85524H69.3222L69.8162 9.36127V8.86729H67.8403V7.87935H69.8162V6.89141H67.8403V5.90347Z" fill="#868E96"></path>
  <path d="M69.4841 0.5H66.6904V3.29368H69.4841V0.5Z" fill="#868E96"></path>
  <path d="M64.0532 4.91553V6.89141H62.5713V4.91553H61.5833L61.0894 5.4095V9.36127L61.5833 9.85524H62.5713V7.87935H64.0532V9.85524H65.0411L65.5351 9.36127V5.4095L65.0411 4.91553H64.0532Z" fill="#868E96"></path>
  <path d="M56.3143 4.91553L55.8203 5.4095V5.90347H57.3022V9.36127L57.7962 9.85524H58.2902L58.7841 9.36127V5.90347H60.266V5.4095L59.7721 4.91553H56.3143Z" fill="#868E96"></path>
  <path d="M2.55401 11.5566L0.578125 13.5325V21.4361L2.55401 23.4119H10.4575V27.3637H6.50578V25.3878H0.578125V29.3396L2.55401 31.3155H14.4093L16.3852 29.3396V21.4361L14.4093 19.4602H6.50578V15.5084H10.4575V17.4843H16.3852V13.5325L14.4093 11.5566H2.55401Z" fill="#868E96"></path>
  <path d="M55.9028 11.5566V31.3155H69.734L71.7099 29.3396V13.5325L69.734 11.5566H55.9028ZM61.8305 15.5084H65.7822V27.3637H61.8305V15.5084Z" fill="#868E96"></path>
  <path d="M73.686 11.5566V31.3155H87.5172L89.4931 29.3396V23.4119L87.5172 21.4361L89.4931 19.4602V13.5325L87.5172 11.5566H73.686ZM79.6137 23.4119H83.5655V27.3637H79.6137V23.4119ZM79.6137 19.4602V15.5084H83.5655V19.4602H79.6137Z" fill="#868E96"></path>
  <path d="M93.4446 11.5566L91.4688 13.5325V29.3396L93.4446 31.3155H105.3L107.276 29.3396V13.5325L105.3 11.5566H93.4446ZM97.3964 15.5084H101.348V27.3637H97.3964V15.5084Z" fill="#868E96"></path>
  <path d="M125.056 21.4375L128.788 17.7059L132.519 21.4375L128.788 25.1691L125.056 21.4375Z" fill="#868E96"></path>
  <path d="M22.3105 36.1445L26.0421 32.4129L29.7737 36.1445L26.0421 39.8761L22.3105 36.1445Z" fill="#868E96"></path>
  <path d="M119.131 11.5566V17.4843L117.155 19.4602L115.18 17.4843V11.5566H111.228L109.252 13.5325V19.4602L111.228 21.4361L109.252 23.4119V29.3396L111.228 31.3155H115.18V25.3878L117.155 23.4119L119.131 25.3878V31.3155H123.083L125.059 29.3396V23.4119L123.083 21.4361L125.059 19.4602V13.5325L123.083 11.5566H119.131Z" fill="#868E96"></path>
  <path d="M47.9993 11.5566V17.4843L42.0717 11.5566H38.1199L36.144 13.5325V29.3396L38.1199 31.3155H42.0717V19.4602L47.9993 25.3878V31.3155H51.9511L53.927 29.3396V13.5325L51.9511 11.5566H47.9993Z" fill="#868E96"></path>
  <path d="M32.192 11.6006H20.3367L18.3608 13.5765V29.3835L20.3367 31.3594H24.2885V23.4559H28.2403V31.3594H32.192L34.1679 29.3835V13.5765L32.192 11.6006ZM26.2644 20.2286L23.7396 17.7039L26.2644 15.1791L28.7891 17.7039L26.2644 20.2286Z" fill="#868E96"></path>
</svg>
