<?xml version="1.0" encoding="UTF-8"?>
<svg xmlns="http://www.w3.org/2000/svg" width="110" height="23" viewBox="0 0 110 23" fill="none">
  <path d="M14.5086 4.70164H10.3374L4.88591 22.3222H0.296387L5.67684 4.70164H1.35307L2.60099 0.563477H15.8036L14.5086 4.70164Z" fill="#868E96"></path>
  <path d="M17.6894 0.563477H31.0755L23.9838 22.3222H10.8452L17.6894 0.563477ZM16.7333 18.1988H20.7498L25.0968 4.70023H21.031L16.7333 18.1988Z" fill="#868E96"></path>
  <path d="M30.5417 22.3222H25.9824L32.1088 3.633L36.4727 0.563477H45.98L40.4786 16.7998H32.3739L30.5417 22.3222ZM37.291 12.6314L39.9478 4.70164H36.3883L33.7561 12.6314H37.291Z" fill="#868E96"></path>
  <path d="M55.2237 22.3222H43.2612L45.5813 15.5504H50.168L49.2491 18.1988H52.088L53.3008 14.7377L47.8873 9.2757L50.8753 0.563477H62.7744L60.4888 7.03155H56.2951L57.1057 4.71148H54.0826L53.0983 7.55533L58.5203 13.0026L55.2237 22.3222Z" fill="#868E96"></path>
  <path d="M66.3582 9.49927H70.315L73.5539 0.563477H78.1997L70.2264 22.3222H65.6671L68.8196 13.6248H64.8776L61.7546 22.3222H57.1953L64.9212 0.563477H69.5669L66.3582 9.49927Z" fill="#868E96"></path>
  <path d="M80.1781 0.563477H93.5642L85.304 22.3222H72.1675L80.1781 0.563477ZM78.2798 18.1988H82.2971L87.3675 4.70023H83.3031L78.2798 18.1988Z" fill="#868E96"></path>
  <path d="M107.18 4.70164H103.006L96.1496 22.3222H91.5601L98.3459 4.70164H94.0221L95.6033 0.563477H108.805L107.18 4.70164Z" fill="#868E96"></path>
</svg>
