<?xml version="1.0" encoding="UTF-8"?>
<svg xmlns="http://www.w3.org/2000/svg" width="164" height="39" viewBox="0 0 164 39" fill="none">
  <path d="M18.6499 0.620117C28.9515 0.620117 37.2998 8.97053 37.2998 19.27C37.2998 29.5695 28.9494 37.9199 18.6499 37.9199C8.35041 37.9199 0 29.5695 0 19.27C0 8.97053 8.35041 0.620117 18.6499 0.620117ZM19.2338 8.08007C18.6513 8.08007 18.1799 8.55717 18.1799 9.14543V10.364L18.0707 10.3334L17.7737 10.2491L17.5035 10.1744C17.5035 10.1744 17.4997 10.1724 17.4959 10.1724H17.4901L15.4399 9.61679C15.3498 9.59187 15.2732 9.68959 15.3192 9.77199L15.6468 10.3775C15.6775 10.4541 15.7216 10.5308 15.7599 10.6132C15.8135 10.7204 15.8672 10.8335 15.9189 10.9466C15.9649 11.0462 16.0109 11.1439 16.0645 11.2512C16.1699 11.4869 16.2849 11.736 16.3979 12.01C16.4746 12.192 16.5512 12.3741 16.6183 12.5638C16.8022 13.0409 16.9766 13.5505 17.128 14.0737C17.1816 14.2404 17.2199 14.3994 17.2659 14.5661L17.287 14.658C17.3483 14.9014 17.402 15.1428 17.4403 15.3862C17.471 15.5529 17.4997 15.7119 17.515 15.8729C17.538 16.0549 17.561 16.2369 17.5687 16.419C17.584 16.5857 17.5917 16.76 17.5917 16.9267C17.5917 17.3521 17.5533 17.7621 17.4633 18.1492C17.4326 18.2622 17.402 18.3829 17.3636 18.4979C17.3253 18.634 17.2717 18.77 17.2199 18.9156C17.1893 18.998 17.1586 19.0823 17.1203 19.1647C16.9306 19.6208 16.6949 20.0749 16.4516 20.5003C16.0952 21.1307 15.7369 21.6844 15.4859 22.0408C15.4514 22.0926 15.4188 22.1385 15.3901 22.1826C15.3115 22.2937 15.392 22.4509 15.528 22.4509H18.1799V24.5452H15.4973C14.7769 24.5452 14.1101 24.137 13.7882 23.4836C13.6215 23.156 13.5563 22.7957 13.5947 22.4432C13.6042 22.3378 13.5257 22.2382 13.4184 22.2382H7.99964C7.90766 22.2382 7.83295 22.3129 7.83295 22.4049V22.516C7.83295 25.9727 10.6247 28.774 14.0698 28.774H23.7902C25.519 28.774 26.5389 27.2794 27.5073 25.7325L27.7592 25.3287C28.0108 24.9256 28.2628 24.5275 28.5269 24.16C29.0614 23.4165 30.3472 22.8264 30.7227 22.6654C30.784 22.6386 30.8262 22.5773 30.8262 22.5083V21.3069C30.8262 21.1958 30.7189 21.1153 30.6135 21.146L24.9399 22.7862C24.9093 22.7938 24.8824 22.8111 24.8613 22.8341C24.2386 23.522 23.7117 23.978 23.591 24.0834C23.2384 24.3823 22.8015 24.5452 22.3417 24.5452H20.2876V22.4509H21.9201C21.9623 22.4509 22.0025 22.4355 22.0332 22.4087L22.2439 22.2152C22.334 22.1328 22.4413 22.0331 22.5697 21.9047C22.6463 21.8281 22.7307 21.7457 22.813 21.6538C22.8974 21.5714 22.9798 21.4794 23.0564 21.3893C23.1848 21.2514 23.3074 21.1076 23.4358 20.9563C23.5278 20.8567 23.6121 20.7436 23.6945 20.6305C23.7864 20.5232 23.8765 20.4025 23.9608 20.2876C24.0221 20.1975 24.0911 20.1055 24.1581 20.0078C24.2194 19.9158 24.2808 19.8181 24.3325 19.7261L24.4853 19.4719C24.5818 19.2995 24.6678 19.1219 24.7445 18.9444C24.8039 18.816 24.8499 18.68 24.8958 18.5497C24.9418 18.4136 24.9801 18.2853 25.0089 18.1492C25.0779 17.8292 25.0932 17.5111 25.0625 17.193C25.0549 17.0934 25.0472 16.9957 25.0242 16.9037V16.8884C25.0165 16.8232 25.0012 16.7504 24.9801 16.6834C24.9112 16.373 24.8039 16.0626 24.6678 15.7579C24.6218 15.6448 24.5682 15.5299 24.5165 15.4245C24.3938 15.1965 24.2654 14.9684 24.1198 14.7481C24.0681 14.6657 24.0068 14.5814 23.9531 14.499C23.8401 14.3246 23.7098 14.158 23.589 13.997C23.4971 13.8763 23.3917 13.7556 23.2921 13.6329C23.1924 13.5122 23.0947 13.3973 22.9951 13.2842C22.6387 12.8818 22.2651 12.5178 21.9316 12.2074C21.8703 12.146 21.8032 12.0847 21.7343 12.0253C21.4756 11.7896 21.2399 11.5846 21.0426 11.4256C20.9429 11.3489 20.8605 11.2742 20.7839 11.2129C20.6862 11.1401 20.6095 11.0807 20.5559 11.0404C20.5405 11.029 20.5233 11.0213 20.5061 11.0155L20.2876 10.9542V9.14543C20.2876 8.85035 20.1688 8.58593 19.9791 8.39238C19.7894 8.19887 19.525 8.08007 19.2338 8.08007ZM14.4243 12.2016C14.3707 12.0809 14.204 12.0694 14.1331 12.1805L9.28153 19.7702L9.20107 19.8967C9.13016 20.0059 9.20872 20.1515 9.34285 20.1515H14.3324C14.3879 20.1515 14.4397 20.1247 14.4703 20.0787C14.5355 19.9791 14.5968 19.8756 14.6524 19.7702C15.0835 19.0459 15.4667 18.2622 15.6066 17.6836C15.9342 16.2771 15.2349 14.018 14.4243 12.2016Z" fill="#868E96"></path>
  <path d="M55.4736 28.2205C53.7876 28.2205 52.2378 27.8427 50.8245 27.0871C49.428 26.3314 48.3124 25.2801 47.478 23.9332C46.6608 22.5698 46.252 21.0421 46.252 19.3501C46.252 17.6582 46.6608 16.1387 47.478 14.7917C48.3124 13.4448 49.428 12.3934 50.8245 11.6378C52.2378 10.8822 53.7876 10.5044 55.4736 10.5044C57.1595 10.5044 58.7008 10.8822 60.0973 11.6378C61.5109 12.3934 62.6176 13.4448 63.4181 14.7917C64.2357 16.1387 64.6441 17.6582 64.6441 19.3501C64.6441 21.0421 64.2357 22.5698 63.4181 23.9332C62.6008 25.2801 61.4938 26.3314 60.0973 27.0871C58.7008 27.8427 57.1595 28.2205 55.4736 28.2205ZM55.4736 24.3767C56.904 24.3767 58.045 23.9167 58.8966 22.9968C59.7653 22.0769 60.1995 20.8614 60.1995 19.3501C60.1995 17.8225 59.7653 16.6069 58.8966 15.7034C58.045 14.7835 56.904 14.3236 55.4736 14.3236C54.026 14.3236 52.8682 14.7753 51.9995 15.6788C51.1479 16.5822 50.7223 17.806 50.7223 19.3501C50.7223 20.8778 51.1479 22.1016 51.9995 23.0215C52.8682 23.925 54.026 24.3767 55.4736 24.3767Z" fill="#868E96"></path>
  <path d="M71.4424 16.2457C71.868 15.6051 72.4555 15.0877 73.2048 14.6934C73.9542 14.2992 74.8311 14.1021 75.8359 14.1021C77.0109 14.1021 78.0754 14.3895 79.0292 14.9645C79.9826 15.5394 80.7319 16.3607 81.2769 17.4284C81.839 18.4962 82.1198 19.7364 82.1198 21.1491C82.1198 22.5618 81.839 23.8102 81.2769 24.8944C80.7319 25.9621 79.9826 26.7916 79.0292 27.383C78.0754 27.9579 77.0109 28.2454 75.8359 28.2454C74.8482 28.2454 73.9713 28.0483 73.2048 27.654C72.4555 27.2598 71.868 26.7506 71.4424 26.1263V32.1385H67.0742V14.2992H71.4424V16.2457ZM77.6752 21.1491C77.6752 20.0978 77.3686 19.2765 76.7554 18.6851C76.1593 18.0773 75.4186 17.7734 74.5331 17.7734C73.6647 17.7734 72.9239 18.0773 72.3107 18.6851C71.7147 19.2929 71.4167 20.1224 71.4167 21.1737C71.4167 22.225 71.7147 23.0546 72.3107 23.6624C72.9239 24.2702 73.6647 24.574 74.5331 24.574C75.4018 24.574 76.1425 24.2702 76.7554 23.6624C77.3686 23.0381 77.6752 22.2004 77.6752 21.1491Z" fill="#868E96"></path>
  <path d="M97.8483 20.952C97.8483 21.3462 97.8229 21.7569 97.7718 22.184H87.8859C87.9542 23.0381 88.235 23.6952 88.7289 24.1552C89.2399 24.5987 89.8613 24.8204 90.5939 24.8204C91.6838 24.8204 92.4413 24.3769 92.8673 23.4899H97.5163C97.278 24.3934 96.8438 25.2065 96.2134 25.9292C95.6006 26.652 94.8255 27.2187 93.8889 27.6294C92.9523 28.04 91.9049 28.2454 90.7472 28.2454C89.3507 28.2454 88.1075 27.9579 87.0176 27.383C85.9277 26.8081 85.0761 25.9867 84.4629 24.919C83.8501 23.8513 83.5435 22.6029 83.5435 21.1737C83.5435 19.7446 83.8415 18.4962 84.4375 17.4284C85.0504 16.3607 85.9019 15.5394 86.9918 14.9645C88.0817 14.3895 89.3335 14.1021 90.7472 14.1021C92.1265 14.1021 93.3526 14.3813 94.4253 14.9398C95.4984 15.4983 96.3328 16.295 96.9289 17.3299C97.5421 18.3648 97.8483 19.5721 97.8483 20.952ZM93.3783 19.8432C93.3783 19.1204 93.1228 18.5455 92.6118 18.1184C92.1008 17.6913 91.4622 17.4778 90.6961 17.4778C89.9635 17.4778 89.3421 17.6831 88.8311 18.0937C88.3372 18.5044 88.0306 19.0875 87.9116 19.8432H93.3783Z" fill="#868E96"></path>
  <path d="M108.838 14.1514C110.507 14.1514 111.835 14.677 112.823 15.7283C113.828 16.7632 114.33 18.1923 114.33 20.0157V28.0483H109.987V20.5824C109.987 19.6625 109.74 18.9479 109.247 18.4387C108.753 17.9295 108.089 17.6749 107.254 17.6749C106.42 17.6749 105.756 17.9295 105.262 18.4387C104.768 18.9479 104.521 19.6625 104.521 20.5824V28.0483H100.153V14.2992H104.521V16.1225C104.964 15.5147 105.56 15.0384 106.309 14.6934C107.058 14.332 107.901 14.1514 108.838 14.1514Z" fill="#868E96"></path>
  <path d="M123.854 28.2205C122.543 28.2205 121.367 28.0152 120.329 27.6045C119.29 27.1938 118.455 26.5861 117.825 25.7811C117.212 24.9763 116.888 24.0071 116.854 22.8736H121.504C121.572 23.5143 121.802 24.0071 122.194 24.352C122.585 24.6806 123.096 24.8449 123.726 24.8449C124.373 24.8449 124.884 24.7052 125.259 24.426C125.633 24.1303 125.821 23.7278 125.821 23.2186C125.821 22.7915 125.668 22.4383 125.361 22.1591C125.072 21.8798 124.705 21.6499 124.263 21.4692C123.837 21.2885 123.224 21.0831 122.423 20.8532C121.265 20.5082 120.32 20.1632 119.588 19.8183C118.856 19.4733 118.226 18.9641 117.697 18.2906C117.17 17.6171 116.906 16.7383 116.906 15.6542C116.906 14.0443 117.51 12.7877 118.719 11.8842C119.928 10.9643 121.504 10.5044 123.445 10.5044C125.421 10.5044 127.013 10.9643 128.222 11.8842C129.431 12.7877 130.078 14.0525 130.163 15.6788H125.438C125.404 15.1203 125.191 14.685 124.799 14.3729C124.407 14.0443 123.905 13.8801 123.292 13.8801C122.764 13.8801 122.338 14.0197 122.015 14.2989C121.691 14.5618 121.529 14.9478 121.529 15.457C121.529 16.0155 121.802 16.4508 122.347 16.7629C122.892 17.075 123.743 17.4118 124.901 17.7732C126.059 18.151 126.996 18.5124 127.711 18.8573C128.444 19.2023 129.074 19.7033 129.601 20.3604C130.129 21.0174 130.393 21.8634 130.393 22.8983C130.393 23.8839 130.129 24.7791 129.601 25.584C129.091 26.3889 128.341 27.0296 127.354 27.506C126.366 27.9823 125.199 28.2205 123.854 28.2205Z" fill="#868E96"></path>
  <path d="M146.518 20.952C146.518 21.3462 146.492 21.7569 146.441 22.184H136.555C136.624 23.0381 136.904 23.6952 137.398 24.1552C137.909 24.5987 138.531 24.8204 139.263 24.8204C140.353 24.8204 141.111 24.3769 141.537 23.4899H146.186C145.947 24.3934 145.513 25.2065 144.883 25.9292C144.27 26.652 143.495 27.2187 142.558 27.6294C141.622 28.04 140.574 28.2454 139.417 28.2454C138.02 28.2454 136.777 27.9579 135.687 27.383C134.597 26.8081 133.746 25.9867 133.132 24.919C132.52 23.8513 132.213 22.6029 132.213 21.1737C132.213 19.7446 132.511 18.4962 133.107 17.4284C133.72 16.3607 134.571 15.5394 135.661 14.9645C136.751 14.3895 138.003 14.1021 139.417 14.1021C140.796 14.1021 142.022 14.3813 143.095 14.9398C144.168 15.4983 145.002 16.295 145.598 17.3299C146.212 18.3648 146.518 19.5721 146.518 20.952ZM142.048 19.8432C142.048 19.1204 141.792 18.5455 141.281 18.1184C140.77 17.6913 140.132 17.4778 139.366 17.4778C138.633 17.4778 138.012 17.6831 137.501 18.0937C137.007 18.5044 136.7 19.0875 136.581 19.8432H142.048Z" fill="#868E96"></path>
  <path d="M147.954 21.1491C147.954 19.7364 148.227 18.4962 148.772 17.4284C149.333 16.3607 150.091 15.5394 151.045 14.9645C151.999 14.3895 153.063 14.1021 154.238 14.1021C155.243 14.1021 156.12 14.2992 156.869 14.6934C157.636 15.0877 158.223 15.6051 158.632 16.2457V14.2992H163V28.0483H158.632V26.1017C158.206 26.7423 157.61 27.2598 156.844 27.654C156.094 28.0483 155.217 28.2454 154.213 28.2454C153.054 28.2454 151.999 27.9579 151.045 27.383C150.091 26.7916 149.333 25.9621 148.772 24.8944C148.227 23.8102 147.954 22.5618 147.954 21.1491ZM158.632 21.1737C158.632 20.1224 158.325 19.2929 157.712 18.6851C157.116 18.0773 156.384 17.7734 155.516 17.7734C154.647 17.7734 153.906 18.0773 153.293 18.6851C152.697 19.2765 152.399 20.0978 152.399 21.1491C152.399 22.2004 152.697 23.0381 153.293 23.6624C153.906 24.2702 154.647 24.574 155.516 24.574C156.384 24.574 157.116 24.2702 157.712 23.6624C158.325 23.0546 158.632 22.225 158.632 21.1737Z" fill="#868E96"></path>
</svg>
