<?xml version="1.0" encoding="UTF-8"?>
<svg xmlns="http://www.w3.org/2000/svg" width="68" height="47" viewBox="0 0 68 47" fill="none">
  <g clip-path="url(#clip0_11977_23209)">
    <path d="M15.7941 16.3823H0.950195C0.950195 19.9618 4.4925 20.0133 4.4925 20.0133H14.6134L0.950195 42.7285C0.950195 46.1391 4.40816 46.1484 4.40816 46.1484H19.0412C19.0412 42.7616 15.7941 42.7285 15.7941 42.7285H4.4925L19.0412 20.0133C19.0412 16.3823 15.7941 16.3823 15.7941 16.3823Z" fill="#868E96"></path>
    <path d="M40.0231 16.3823H28.6873C28.6873 16.3823 25.3521 16.7582 25.3521 20.0636H43.5483C43.5483 20.0636 43.3488 16.3823 40.0231 16.3823Z" fill="#868E96"></path>
    <path d="M28.6937 46.1485H40.051C43.5829 46.1485 43.5483 42.7827 43.5483 42.7827H25.3521C25.3521 46.1485 28.6937 46.1485 28.6937 46.1485Z" fill="#868E96"></path>
    <mask id="mask0_11977_23209" style="mask-type:luminance" maskUnits="userSpaceOnUse" x="0" y="0" width="68" height="47">
      <path d="M0.950195 46.1474H67.9315V0.5H0.950195V46.1474Z" fill="white"></path>
    </mask>
    <g mask="url(#mask0_11977_23209)">
      <path d="M25.3384 32.9334H43.542V29.5137H25.3384V32.9334Z" fill="#868E96"></path>
    </g>
    <mask id="mask1_11977_23209" style="mask-type:luminance" maskUnits="userSpaceOnUse" x="0" y="0" width="68" height="47">
      <path d="M0.950195 46.1474H67.9315V0.5H0.950195V46.1474Z" fill="white"></path>
    </mask>
    <g mask="url(#mask1_11977_23209)">
      <path d="M64.5094 20.0149V40.3859C64.5094 40.3859 64.4776 42.7046 62.4401 42.7046L55.0556 42.7277C55.0556 42.7277 52.9789 42.7277 52.9789 40.3669L52.9919 21.5058C52.9919 21.5058 52.9919 20.0149 55.0173 20.0149H64.5094ZM67.9306 42.7277V0.5H64.5094V16.3843H53.1054C49.7188 16.3843 49.6846 20.0149 49.6846 20.0149V42.7277C49.6846 46.1399 52.9789 46.1473 52.9789 46.1473H64.5518C68.0916 46.1473 67.9306 42.7277 67.9306 42.7277Z" fill="#868E96"></path>
    </g>
  </g>
  <defs>
    <clipPath id="clip0_11977_23209">
      <rect width="68" height="47" fill="white"></rect>
    </clipPath>
  </defs>
</svg>
